<svg width="186" height="200" fill="none" xmlns="http://www.w3.org/2000/svg"><g clip-path="url(#a)" fill="#F50B48"><path d="M186 33.671v1.987l-6.571 104.844a.064.064 0 0 1-.011.031.063.063 0 0 1-.026.02.054.054 0 0 1-.033.003.062.062 0 0 1-.029-.015.632.632 0 0 1-.14-.198c-21.463-46.858-42.412-92.56-62.848-137.103-.419-.914-.802-1.773-1.148-2.577-.059-.137-.021-.174.113-.11L186 33.67ZM8.718 136.78c-.59 1.289-1.18 2.572-1.766 3.848a.045.045 0 0 1-.015.019.042.042 0 0 1-.024.01.055.055 0 0 1-.025-.004.057.057 0 0 1-.02-.016.503.503 0 0 1-.094-.299c-.012-1.235-.105-2.473-.183-3.713-1.78-28.347-3.55-56.694-5.31-85.042C.934 45.999.59 40.342.25 34.61a3.415 3.415 0 0 0-.103-.694.23.23 0 0 1 .121-.266L70.478.733a2.74 2.74 0 0 1 .502-.178.074.074 0 0 1 .07.02.076.076 0 0 1 .02.07 1.533 1.533 0 0 1-.098.295A385797.112 385797.112 0 0 1 8.718 136.78ZM67.746 116.077l25.327-62.431c.02-.051.052-.06.094-.024a.283.283 0 0 1 .068.113l25.283 62.324c.072.177.013.266-.177.266H67.91c-.176 0-.23-.083-.164-.248ZM54.6 147.609h77.072c.035 0 .069.011.098.031a.179.179 0 0 1 .066.08l9.792 24.017a.18.18 0 0 1-.075.224l-48.332 27.927a.17.17 0 0 1-.176 0l-48.328-27.926a.18.18 0 0 1-.076-.223l9.795-24.019a.173.173 0 0 1 .065-.08.174.174 0 0 1 .098-.031Z"/></g><defs><clipPath id="a"><path fill="#fff" d="M0 0h186v200H0z"/></clipPath></defs></svg>