<svg width="198" height="199" fill="none" xmlns="http://www.w3.org/2000/svg"><path d="M196.698 164.395a33.166 33.166 0 0 1-9.6 23.41 32.835 32.835 0 0 1-23.259 9.731l-129.407.227a32.837 32.837 0 0 1-23.293-9.649 33.17 33.17 0 0 1-9.682-23.377L1.23 34.677a33.17 33.17 0 0 1 9.6-23.411 32.834 32.834 0 0 1 23.26-9.73l129.407-.228a32.834 32.834 0 0 1 23.293 9.65 33.171 33.171 0 0 1 9.682 23.376l.225 130.061ZM129.549 95.84c9.735-5.236 14.39-13.658 13.966-25.266-.601-17.839-14.603-26.154-31.291-26.332a3000.164 3000.164 0 0 0-56.572-.107c-.34.01-.664.148-.902.387-.237.24-.37.56-.37.893V156.96c0 .387.152.757.424 1.03.272.274.64.427 1.025.427 18.268.332 36.312.296 54.132-.106 19.705-.451 31.974-7.534 36.806-21.251 4.95-14.001.107-35.571-16.936-39.196-1.932-.426-2.027-1.101-.282-2.025Z" fill="#800AF9"/><path d="M74.32 61.619a1.142 1.142 0 0 1 .69-1.083c.14-.06.29-.09.442-.09l33.024-.142a15.208 15.208 0 0 1 10.659 4.266 14.642 14.642 0 0 1 4.473 10.41v2.132a14.547 14.547 0 0 1-1.109 5.674 14.756 14.756 0 0 1-3.24 4.823 15.079 15.079 0 0 1-4.875 3.237 15.313 15.313 0 0 1-5.767 1.156l-33.023.142c-.295 0-.577-.115-.788-.32a1.14 1.14 0 0 1-.344-.781l-.141-29.424ZM74.427 107.673c0-.311.123-.609.341-.829.22-.22.516-.343.826-.343l35.746.035c4.556.01 8.923 1.652 12.139 4.564 3.216 2.912 5.017 6.856 5.009 10.965v4.62a14.188 14.188 0 0 1-1.321 5.927 15.505 15.505 0 0 1-3.736 5.019 17.422 17.422 0 0 1-5.583 3.347 18.826 18.826 0 0 1-6.579 1.165l-35.746-.036a1.16 1.16 0 0 1-1.078-.724 1.172 1.172 0 0 1-.089-.448l.07-33.262Z" fill="#800AF9"/></svg>