<svg width="156" height="198" fill="none" xmlns="http://www.w3.org/2000/svg"><path d="m70.448 46.919.036-45.045c0-.307.153-.46.46-.46l30.314-.07c.686 0 1.028.341 1.028 1.025v143.939a1.81 1.81 0 0 1-1.453 1.768C57.578 156.667-5.07 157.445 1.95 92.989c3.723-34.013 33.93-48.793 65.91-43.843 1.725.26 2.588-.483 2.588-2.227Zm.922 77.75V77.644c0-.816-.325-1.598-.904-2.175a3.089 3.089 0 0 0-2.18-.9H58.003c-6.122 0-11.993 2.592-16.321 7.207-4.329 4.615-6.76 10.874-6.76 17.4v3.961c0 6.526 2.431 12.786 6.76 17.401 4.328 4.615 10.2 7.207 16.32 7.207h10.282a3.084 3.084 0 0 0 3.085-3.076ZM150.576 1.414h-29.924a.992.992 0 0 0-.993.99v30.62c0 .546.445.99.993.99h29.924a.991.991 0 0 0 .992-.99V2.404a.99.99 0 0 0-.992-.99Z" fill="#27AB78"/><path d="m119.978 196.126-27.902-13.188a.504.504 0 0 1-.19-.187.466.466 0 0 1-.064-.253.41.41 0 0 1 .085-.235.389.389 0 0 1 .204-.138c19.713-7.496 29.782-22.865 30.207-46.106.638-33.801.792-61.404.461-82.806-.023-.755.355-1.132 1.135-1.132l29.498-.035c.273 0 .534.104.727.29a.97.97 0 0 1 .301.7c.473 35.805.295 66.778-.532 92.918-.733 23.784-11.369 40.508-31.909 50.172-.685.33-1.359.33-2.021 0Z" fill="#27AB78"/></svg>