<svg width="198" height="142" fill="none" xmlns="http://www.w3.org/2000/svg"><path d="M88.817 0h17.396c.377.047.754.047 1.131 0l.354 17.253c.023 1.538-.731 2.296-2.263 2.272H90.797c-1.461 0-2.286-.722-2.475-2.165-.778-6.012-.613-11.798.495-17.36ZM59.065 23.166l-17.466.03a1.31 1.31 0 0 0-1.306 1.317l.029 16.543a1.31 1.31 0 0 0 1.31 1.31l17.467-.03a1.31 1.31 0 0 0 1.305-1.316l-.028-16.543a1.31 1.31 0 0 0-1.31-1.31ZM82.754 23.166l-17.113.03c-.84.002-1.519.687-1.517 1.53l.028 16.117a1.523 1.523 0 0 0 1.523 1.523l17.113-.03a1.523 1.523 0 0 0 1.517-1.529l-.028-16.117a1.523 1.523 0 0 0-1.523-1.524ZM106.235 23.11l-16.475.144c-.977.009-1.761.81-1.753 1.79l.136 15.62c.008.98.807 1.768 1.783 1.76l16.476-.145a1.771 1.771 0 0 0 1.752-1.79l-.135-15.62a1.772 1.772 0 0 0-1.784-1.76Z" fill="#2497ED"/><path d="M74.427 142H62.122C22.275 140.154-1.945 109.837 1.91 71.32c.142-1.35.884-2.036 2.228-2.06l138.847-.142c5.092 0 6.683-2.378 4.773-7.135-3.865-9.561-2.651-19.963 3.642-31.204a3 3 0 0 1 4.243-1.065c7.449 4.875 12.21 11.572 14.284 20.092.128.53.447.992.892 1.294a2.1 2.1 0 0 0 1.513.34c8.014-1.35 15.663.094 22.946 4.33.92.545 1.191 1.314.814 2.308-4.88 12.354-13.801 18.495-26.766 18.424-1.815 0-3.111.829-3.889 2.486-17.726 38.647-48.062 59.651-91.01 63.012Z" fill="#2497ED"/><path d="M35.039 46.15h-16.9a1.63 1.63 0 0 0-1.627 1.633v15.833a1.63 1.63 0 0 0 1.626 1.633h16.9a1.63 1.63 0 0 0 1.627-1.633V47.783a1.63 1.63 0 0 0-1.626-1.633ZM58.676 46.135l-16.618.03a1.736 1.736 0 0 0-1.729 1.742l.027 15.62c.002.96.779 1.738 1.736 1.736l16.617-.029a1.736 1.736 0 0 0 1.73-1.742l-.027-15.62a1.736 1.736 0 0 0-1.736-1.737ZM83.108 46.17l-17.75.031a1.24 1.24 0 0 0-1.234 1.245l.028 16.543a1.24 1.24 0 0 0 1.24 1.24l17.75-.031a1.24 1.24 0 0 0 1.234-1.245l-.028-16.543a1.24 1.24 0 0 0-1.24-1.24ZM106.512 46.165l-16.83-.03a1.594 1.594 0 0 0-1.594 1.595l-.027 15.904a1.594 1.594 0 0 0 1.588 1.6l16.83.03a1.595 1.595 0 0 0 1.594-1.595l.028-15.904a1.595 1.595 0 0 0-1.589-1.6ZM130.256 46.15h-16.83a1.63 1.63 0 0 0-1.627 1.633v15.833a1.63 1.63 0 0 0 1.627 1.633h16.83a1.63 1.63 0 0 0 1.626-1.633V47.783a1.63 1.63 0 0 0-1.626-1.633Z" fill="#2497ED"/></svg>