<svg width="200" height="199" fill="none" xmlns="http://www.w3.org/2000/svg"><path d="M198.857 99.429c0 26.087-10.415 51.106-28.954 69.553-18.54 18.447-43.684 28.81-69.903 28.81-26.219 0-51.363-10.363-69.903-28.81-18.539-18.447-28.954-43.466-28.954-69.553 0-26.088 10.415-51.107 28.954-69.553C48.637 11.429 73.781 1.066 100 1.066c26.219 0 51.363 10.363 69.903 28.81 18.539 18.446 28.954 43.465 28.954 69.553Zm-156.036 2.736h50.786c1.19 0 1.786-.592 1.786-1.777-.107-20.22-11.036-39.373-32.893-39.124-45.714.568-47.536 74.802-.607 76.188 15.428.45 26-6.136 31.714-19.758 1.072-2.582.214-3.873-2.571-3.873h-5.893c-.867.002-1.71.27-2.414.767a4.108 4.108 0 0 0-1.515 2.005c-1.428 4.051-4.107 6.846-8.035 8.386-16.608 6.539-32.358-2.381-32.608-20.54-.023-1.516.727-2.274 2.25-2.274Zm93-15.422a1.101 1.101 0 0 1-.92.457 1.109 1.109 0 0 1-.901-.493l-17.214-24.84a1.112 1.112 0 0 0-.893-.461l-13.464-.178a1.114 1.114 0 0 0-.978.601 1.097 1.097 0 0 0 .085 1.14l24.857 33.795a1.097 1.097 0 0 1 0 1.279l-27 38.023a1.1 1.1 0 0 0 .928 1.706l12.643-.32a1.109 1.109 0 0 0 .893-.462l20.107-29.637a1.107 1.107 0 0 1 .929-.501 1.105 1.105 0 0 1 .928.501l19.858 29.637a1.102 1.102 0 0 0 .892.498l13.643.177a1.108 1.108 0 0 0 .978-.601 1.095 1.095 0 0 0-.085-1.14l-27.928-38.805a1.095 1.095 0 0 1 .035-1.28l24.536-32.834c.119-.167.19-.363.204-.568a1.106 1.106 0 0 0-1.133-1.173l-12.464.142a1.11 1.11 0 0 0-.893.462l-17.643 24.875Z" fill="#fff"/><path d="M41.5 92.357a.573.573 0 0 1-.572-.568v-.356c.01-5.14 2.162-10.066 5.986-13.697 3.823-3.631 9.005-5.67 14.407-5.67h.572c2.68 0 5.335.504 7.812 1.482a20.495 20.495 0 0 1 6.62 4.215 19.37 19.37 0 0 1 4.418 6.306 18.589 18.589 0 0 1 1.543 7.435v.356a.565.565 0 0 1-.378.536.575.575 0 0 1-.23.032l-40.178-.07Z" fill="#fff"/></svg>