<svg width="197" height="197" fill="none" xmlns="http://www.w3.org/2000/svg"><path d="M184.15.796H13.71C6.652.796.929 6.52.929 13.58v170.439c0 7.06 5.723 12.783 12.783 12.783H184.15c7.06 0 12.783-5.723 12.783-12.783V13.579c0-7.06-5.723-12.783-12.783-12.783Z" fill="#F7E025"/><path d="M101.873 106.469h12.25v47.936c-.022 4.393-.954 8.177-2.796 11.351-1.842 3.151-4.416 5.582-7.723 7.29-3.285 1.687-7.113 2.53-11.484 2.53-3.995 0-7.59-.71-10.786-2.13-3.173-1.443-5.692-3.573-7.557-6.391-1.864-2.82-2.796-6.325-2.796-10.52h12.284c.022 1.842.421 3.428 1.198 4.76a7.984 7.984 0 0 0 3.296 3.063c1.398.71 3.007 1.065 4.827 1.065 1.974 0 3.65-.41 5.026-1.232 1.376-.843 2.419-2.086 3.129-3.728.732-1.642 1.11-3.662 1.132-6.058v-47.936Zm62.699 18.741c-.31-2.907-1.62-5.171-3.927-6.791-2.286-1.62-5.26-2.43-8.922-2.43-2.574 0-4.782.389-6.624 1.165-1.843.777-3.251 1.831-4.228 3.163-.976 1.331-1.476 2.851-1.498 4.561 0 1.419.322 2.652.966 3.694.665 1.043 1.564 1.931 2.696 2.663a18.934 18.934 0 0 0 3.762 1.798c1.376.488 2.762.899 4.161 1.232l6.391 1.597c2.575.6 5.049 1.41 7.424 2.431 2.396 1.021 4.538 2.308 6.424 3.861a17.14 17.14 0 0 1 4.527 5.626c1.11 2.197 1.665 4.772 1.665 7.723 0 3.995-1.021 7.512-3.062 10.553-2.042 3.018-4.994 5.381-8.855 7.09-3.84 1.686-8.489 2.53-13.948 2.53-5.304 0-9.91-.821-13.815-2.464-3.884-1.642-6.924-4.038-9.121-7.19-2.175-3.151-3.352-6.99-3.529-11.518h12.15c.178 2.375.91 4.35 2.197 5.926 1.288 1.575 2.963 2.751 5.027 3.528 2.086.777 4.416 1.165 6.991 1.165 2.685 0 5.037-.399 7.057-1.198 2.042-.821 3.64-1.953 4.794-3.396 1.153-1.464 1.741-3.172 1.764-5.126-.023-1.775-.544-3.24-1.565-4.394-1.021-1.176-2.452-2.152-4.294-2.929-1.82-.799-3.95-1.51-6.392-2.131l-7.756-1.998c-5.615-1.441-10.053-3.627-13.315-6.557-3.24-2.951-4.86-6.869-4.86-11.751 0-4.017 1.087-7.534 3.262-10.553 2.197-3.017 5.181-5.359 8.954-7.024 3.774-1.686 8.046-2.53 12.817-2.53 4.838 0 9.077.844 12.716 2.53 3.662 1.665 6.536 3.984 8.622 6.958 2.086 2.952 3.163 6.347 3.229 10.186h-11.885Z" fill="#1C1C1C"/></svg>