<svg width="198" height="199" fill="none" xmlns="http://www.w3.org/2000/svg"><path d="M81.498 54.796c14.92-13.326 38.964-27.576 35.923-51.242-.094-.711.2-1.232.884-1.564a.485.485 0 0 1 .354-.071c.353.047.589.237.707.568 10.006 27.363-12.128 42.999-29.488 58.954-15.699 14.463-8.026 33.653 5.622 45.593.118.118.176.26.176.426.024.379-.07.711-.282.995-.236.284-.519.332-.849.142-20.86-12.01-34.862-34.22-13.047-53.8Z" fill="#EA2E2F"/><path d="M134.534 43.176c-9.994 4.975-17.396 11.514-22.204 19.616-5.41 9.132-.46 18.194 4.702 25.94 6.577 9.915-.53 20.718-9.546 25.871-1.815 1.042-2.145.687-.99-1.066 12.446-19.119-21.391-29.744-2.334-52.77 6.883-8.34 16.889-14.582 30.018-18.728.307-.095.519.012.637.32h.035c.142.379.036.651-.318.817Z" fill="#EA2E2F"/><path d="M157.728 128.568c4.408-7.936 3.112-14.096-3.889-18.478a6.96 6.96 0 0 0-3.606-1.066c-.849 0-1.662-.19-2.44-.569-1.32-.616-1.261-1.042.177-1.279 15.592-2.701 29.77 10.234 17.148 24.271-5.893 6.586-13.895 11.11-24.008 13.574-2.38.569-2.545.178-.495-1.172 6.4-4.194 13.295-8.351 17.113-15.281ZM62.794 113.075c-4.384 1.658-4.396 3.34-.035 5.046 2.31.9 4.75 1.516 7.319 1.848 22.322 2.913 43.784 2.226 64.385-2.062 1.674-.355 3.218-.047 4.632.924l1.768 1.209c1.32.9 1.214 1.551-.318 1.954-25.41 6.941-51.94 7.925-79.59 2.95-4.572-.83-8.72-2.298-12.445-4.407a3.37 3.37 0 0 1-1.706-3.12c.034-.628.24-1.234.598-1.75a3.363 3.363 0 0 1 1.426-1.171c8.368-3.577 17.337-5.449 26.907-5.615.33 0 .507.166.53.498v.035c.048.451-.165.699-.636.747-4.55.402-8.828 1.374-12.835 2.914ZM68.24 135a2 2 0 0 0 .547 2.423c.233.187.505.318.796.384 17.42 4.241 35.487 4.217 54.202-.071 1.509-.355 2.947-.165 4.314.569l3.677 1.883c2.098 1.09 2.027 1.967-.212 2.63-23.501 7.131-47.049 7.368-70.644.711a12.148 12.148 0 0 1-4.773-2.559 3.533 3.533 0 0 1-.319-5.091 3.496 3.496 0 0 1 1.592-.985l8.875-2.595c.895-.26 1.555.036 1.98.889.283.592.27 1.196-.036 1.812ZM78.033 158.702c11.692 2.251 23.583 2.192 35.676-.177 1.791-.356 3.465-.048 5.02.924l4.95 3.091c1.556.972 1.462 1.73-.283 2.275-19.375 6.135-38.28 6.053-56.712-.249a4.458 4.458 0 0 1-1.988-1.375 4.486 4.486 0 0 1-.982-2.214c-.307-2.085.46-3.495 2.298-4.229 1.532-.616 3.1-1.232 4.702-1.848 2.028-.782 3.536-.213 4.526 1.706.275.532.67.997 1.152 1.36a4.11 4.11 0 0 0 1.641.736Z" fill="#0094F0"/><path d="M43.702 167.586a3.741 3.741 0 0 0 1.555 6.148c29.134 9.358 60.815 10.151 95.04 2.381 5.304-1.208 9.759-3.684 13.365-7.427 1.155-1.161 1.968-.959 2.44.604l.389 1.279a4.146 4.146 0 0 1-1.061 4.123c-3.488 3.458-7.802 5.792-12.941 7-32.952 7.652-66.353 7.723-100.202.213a33.33 33.33 0 0 1-12.516-5.65 4.467 4.467 0 0 1-1.381-1.66 4.526 4.526 0 0 1-.448-2.121 4.574 4.574 0 0 1 2.076-3.681c7.355-4.738 15.687-7.475 24.998-8.209.094-.024.153.024.177.142l.106.888c.023.379-.154.593-.53.64-4.573.592-8.262 2.369-11.067 5.33Z" fill="#0094F0"/><path d="M150.551 189.761c-31.916 9.784-64.303 10.613-97.162 2.487-.188-.047-.235.012-.141.178.141.284.023.035-.354-.746-.306-.593-.13-.853.53-.782 28.71 4.015 56.006 4.335 85.035-1.99 8.108-1.777 15.368-4.726 21.78-8.849 6.01-3.837 6.682-3.056 2.015 2.346-2.947 3.411-6.848 5.863-11.703 7.356Z" fill="#0094F0"/></svg>