<svg width="199" height="191" fill="none" xmlns="http://www.w3.org/2000/svg"><path d="M96.515 0h4.975l72.635 34.345a10.96 10.96 0 0 1 3.855 3.038 11.038 11.038 0 0 1 2.151 4.425l17.376 74.914c.355 1.546.358 3.151.007 4.694a10.48 10.48 0 0 1-2.032 4.22l-48.648 60.483a9.591 9.591 0 0 1-3.338 2.633 9.68 9.68 0 0 1-4.16.939l-79.707-.035a9.677 9.677 0 0 1-4.16-.939 9.59 9.59 0 0 1-3.338-2.633L4.016 126.272a11.929 11.929 0 0 1-2.35-4.825 11.897 11.897 0 0 1 .004-5.361l17.057-73.783a12.24 12.24 0 0 1 2.38-4.926 12.402 12.402 0 0 1 4.301-3.421L96.515 0ZM128 143.391c10.044-6.602 16.986-15.091 20.824-25.466a5.687 5.687 0 0 1 1.209-1.951 5.73 5.73 0 0 1 4.137-1.789 5.736 5.736 0 0 1 2.258.45 44.982 44.982 0 0 0 10.27 3.007c3.293.542 4.857-.672 4.691-3.643a4.768 4.768 0 0 0-1.541-3.232 4.805 4.805 0 0 0-3.363-1.26c-4.43.07-8.481-.649-12.153-2.158a3.266 3.266 0 0 1-1.59-1.357 3.24 3.24 0 0 1-.436-2.038c1.208-11.295-1.137-22.072-7.036-32.329a5.405 5.405 0 0 1-.573-3.99 5.36 5.36 0 0 1 2.35-3.26l9.95-6.368c1.208-.778 1.67-1.862 1.386-3.254-.308-1.438-1.066-2.464-2.275-3.077-2.25-1.132-4.252-.79-6.005 1.026l-5.97 6.19a6.714 6.714 0 0 1-4.69 2.052 6.788 6.788 0 0 1-4.798-1.84c-7.368-6.91-16.56-11.295-27.576-13.158a5.404 5.404 0 0 1-3.426-2.101 5.355 5.355 0 0 1-1.016-3.877l1.35-10.787c.427-3.467-1.077-4.823-4.513-4.068l-1.314.283c-2.298.495-3.317 1.898-3.056 4.209l1.35 11.39a4.336 4.336 0 0 1-.87 3.15 4.375 4.375 0 0 1-2.826 1.66c-11.3 1.65-20.954 6.154-28.961 13.511a6.485 6.485 0 0 1-8.991-.248l-5.153-5.234c-1.942-2.005-4.264-2.63-6.965-1.875-1.54.424-2.002 1.615-1.386 3.572.593 1.887 1.73 3.349 3.412 4.386l7.462 4.599a5.165 5.165 0 0 1 2.317 3.187c.32 1.325.1 2.722-.61 3.887-5.995 9.833-8.387 20.703-7.18 32.611a3.064 3.064 0 0 1-.433 1.891 3.087 3.087 0 0 1-1.485 1.257c-3.72 1.533-7.925 2.37-12.615 2.511-3.483.118-4.987 1.757-4.513 4.917a4.061 4.061 0 0 0 1.888 2.876 4.017 4.017 0 0 0 3.407.378l10.767-3.608a5.054 5.054 0 0 1 3.743.206 5.084 5.084 0 0 1 2.582 2.73c4.312 10.894 11.005 19.277 20.078 25.148a5.235 5.235 0 0 1 2.277 3.287 5.215 5.215 0 0 1-.713 3.929l-6.113 9.408a3.42 3.42 0 0 0 .036 3.785c.947 1.391 2.108 2.134 3.482 2.228 2.109.142 3.518-.778 4.23-2.759l4.05-11.141a3.929 3.929 0 0 1 1.956-2.207 3.96 3.96 0 0 1 2.948-.234c11.49 3.49 23.122 3.478 34.896-.035 1.374-.425 2.452-.024 3.234 1.202 2.345 3.632 4.075 7.64 5.188 12.026.284 1.109.924 1.946 1.919 2.512 1.99 1.108 3.755.766 5.295-1.026a4.088 4.088 0 0 0 .284-5.058c-2.535-3.537-4.619-7.239-6.254-11.106a3.157 3.157 0 0 1-.13-2.167 3.238 3.238 0 0 1 1.303-1.76Z" fill="#2E6CE6"/><path d="m94.028 60.023-.996 18.075a3.421 3.421 0 0 1-.58 1.724 3.444 3.444 0 0 1-3.184 1.501 3.456 3.456 0 0 1-1.708-.643L72.813 70.104a3.434 3.434 0 0 1-1.41-3.086 3.422 3.422 0 0 1 1.943-2.785l15.778-7.499a3.46 3.46 0 0 1 3.388.262 3.419 3.419 0 0 1 1.516 3.027ZM125.974 70.069l-14.569 10.47a3.495 3.495 0 0 1-4.923-.884 3.446 3.446 0 0 1-.585-1.734l-.995-17.862c-.035-.601.089-1.2.358-1.74a3.478 3.478 0 0 1 2.863-1.913 3.5 3.5 0 0 1 1.754.328l15.564 7.392a3.46 3.46 0 0 1 1.667 4.57 3.475 3.475 0 0 1-1.134 1.373ZM65.99 77.992l13.859 13.122a3.04 3.04 0 0 1 .883 2.911 3.058 3.058 0 0 1-2.091 2.217l-17.91 5.412a3.07 3.07 0 0 1-2.949-.67 3.042 3.042 0 0 1-.925-2.867l4.051-18.534a3.036 3.036 0 0 1 .727-1.417 3.057 3.057 0 0 1 2.944-.922 3.06 3.06 0 0 1 1.41.748ZM136.883 78.133c3.199 7.475 4.739 14.797 4.62 21.965 0 1.462-.711 1.993-2.132 1.592l-18.585-5.2a3.558 3.558 0 0 1-1.617-.958 3.524 3.524 0 0 1 .195-5.09l14.534-12.945c1.303-1.156 2.298-.944 2.985.636ZM99.5 105.085c3.847 0 6.965-3.103 6.965-6.932s-3.118-6.933-6.965-6.933-6.965 3.104-6.965 6.933c0 3.829 3.118 6.932 6.965 6.932ZM121.141 130.623l-7.142-17.226a3.2 3.2 0 0 1 .438-3.227 3.237 3.237 0 0 1 3.044-1.194l18.514 2.865a3.228 3.228 0 0 1 2.519 1.994 3.2 3.2 0 0 1-.458 3.17l-11.407 14.396a3.232 3.232 0 0 1-2.976 1.172 3.23 3.23 0 0 1-2.532-1.95ZM85.108 113.539l-7.036 16.765a3.22 3.22 0 0 1-2.506 1.942 3.24 3.24 0 0 1-2.967-1.128l-11.584-14.042a3.211 3.211 0 0 1-.507-3.169 3.24 3.24 0 0 1 2.497-2.031l18.656-2.758a3.248 3.248 0 0 1 3.016 1.212 3.21 3.21 0 0 1 .431 3.209ZM87.489 135.292l9.275-16.801a3.067 3.067 0 0 1 4.243-1.159c.472.279.86.679 1.123 1.159l9.239 16.836a3.032 3.032 0 0 1-1.186 4.1 3.064 3.064 0 0 1-1.515.392l-18.514-.035a3.072 3.072 0 0 1-2.61-1.495 3.035 3.035 0 0 1-.055-2.997Z" fill="#2E6CE6"/></svg>