<svg width="196" height="171" fill="none" xmlns="http://www.w3.org/2000/svg"><path d="M106.57 118.015c-5.522 3.163-5.533 6.351-.035 9.562l14.724 8.606c3.209 1.889 6.43 1.901 9.663.036l35.04-20.223a4.245 4.245 0 0 0 2.124-3.613l.177-28.864c.047-4.982 2.289-8.583 6.725-10.802 7.81-3.92 12.07-6.057 12.778-6.41 5.379-2.692 8.069-1.17 8.069 4.568v57.375a4.44 4.44 0 0 1-.605 2.244 4.542 4.542 0 0 1-1.66 1.652l-65.338 37.542a4.292 4.292 0 0 1-4.177 0l-51.18-29.255c-1.794-1.015-2.69-2.55-2.69-4.604v-26.952c0-1.299.566-2.267 1.698-2.904l37.129-21.285c1.888-1.087 2.867-2.704 2.938-4.853.283-9.066.153-17.649-.389-25.747-.378-5.69-3.044-7.107-8-4.25L73.228 67.332a6.013 6.013 0 0 1-6.017 0L36.736 49.838a5.767 5.767 0 0 0-2.868-.755 5.74 5.74 0 0 0-2.859.77 5.671 5.671 0 0 0-2.838 4.942v49.655c0 7.06-3.044 8.807-9.132 5.242l-14.335-8.394C1.73 99.551.256 96.965.28 93.542L.42 6.629a5.598 5.598 0 0 1 2.794-4.85 5.59 5.59 0 0 1 5.595-.002l58.366 33.61a5.951 5.951 0 0 0 2.937.798 5.9 5.9 0 0 0 2.938-.762l59.251-34a5.058 5.058 0 0 1 6.897 1.865c.443.769.677 1.64.677 2.527V95.63a5.719 5.719 0 0 1-.759 2.85 5.61 5.61 0 0 1-2.072 2.073l-30.475 17.461Z" fill="#007FFF"/><path d="m193.181 31.244-16.388 9.633a5.341 5.341 0 0 1-7.347-1.916 5.355 5.355 0 0 1-.723-2.688l-.035-19.798a5.342 5.342 0 0 1 2.584-4.604l16.529-9.917a5.343 5.343 0 0 1 8.105 4.604L195.8 26.64a5.34 5.34 0 0 1-.7 2.649 5.34 5.34 0 0 1-1.919 1.955Z" fill="#007FFF"/></svg>