<svg width="200" height="198" fill="none" xmlns="http://www.w3.org/2000/svg"><path d="M57 130.857c-.75 2.263-1.179 5.021-2.393 7.036-8.571 14.037-22.75.071-25.928-9.936-4.881-15.51-3.536-31.126 4.035-46.848.524-1.108.429-2.156-.285-3.146-6.643-9.193-11.12-19.4-13.43-30.62-1-4.903-2.88-9.24-5.642-13.011C7.393 26.27-3.786 14.462 4.5 4.596c7.107-8.45 23.214 1.662 29.893 5.905 3.452 2.216 7.357 3.677 11.714 4.384 52.929 8.592 82.143 51.445 100.536 98.93.5 1.296 1.416 2.192 2.75 2.687 18.333 6.906 34.476 17.961 48.428 33.165 1.119 1.226 1.203 2.534.25 3.924-.809 1.155-1.916 1.945-3.321 2.369a330.539 330.539 0 0 1-24.893 6.4c-2.5.519-2.809 1.638-.929 3.359 6.5 5.987 13.524 11.656 21.072 17.007a36.677 36.677 0 0 1 6.786 6.223c1.166 1.343 1.631 2.793 1.393 4.348-.215 1.533-1.06 2.558-2.536 3.077-1 .377-1.905.212-2.714-.495-7.024-6.153-14.536-12.151-22.536-17.997-5.857-4.314-10.822-10.218-12.893-17.325a2.984 2.984 0 0 1-.112-1.225c.048-.412.181-.812.391-1.175a3.17 3.17 0 0 1 .831-.938 3.26 3.26 0 0 1 1.14-.551l25-6.223c1.548-.401 1.738-1.132.571-2.192-12-10.961-25.202-19.105-39.607-24.432a10.542 10.542 0 0 1-3.658-2.311 10.18 10.18 0 0 1-2.377-3.559c-18.429-46.317-44.25-87.72-97.143-95.464-8.929-1.308-17.572-8.486-26.143-12.446-1.19-.542-2.381-.766-3.572-.671a3.918 3.918 0 0 0-1.935.684 3.863 3.863 0 0 0-1.314 1.565A3.82 3.82 0 0 0 10 15.522c6.786 9.122 14.678 18.28 16.928 29.841 2.215 11.29 7.084 21.674 14.608 31.15.487.606.78 1.34.844 2.109a3.812 3.812 0 0 1-.487 2.204c-8.107 14.39-10.715 33.342-3.786 47.874 1.5 3.159 3.929 5.492 7.286 7.001 1.571.707 2.488.2 2.75-1.521l3.535-24.537a3.06 3.06 0 0 1 .517-1.315 3.093 3.093 0 0 1 1.055-.948c.928-.519 1.928-.554 3-.106 1.119.471 1.88 1.261 2.286 2.369 7.976 21.52 18.607 37.407 31.892 47.661a2.91 2.91 0 0 1 1.108 1.945c.262 1.862-.108 3.087-1.108 3.677-2.261 1.343-4.416 1.166-6.464-.531-10.547-8.768-18.88-19.316-25-31.644-.785-1.58-1.44-1.544-1.964.106Z" fill="#0E9AD0"/><path d="M42.678 37.832c-1.976.07-3.261-.707-3.857-2.333a4.098 4.098 0 0 1 .683-4.036 4.177 4.177 0 0 1 1.729-1.245 4.217 4.217 0 0 1 2.124-.235c7.167 1.037 10.905 5.068 11.214 12.092.072 1.461-.523 2.581-1.785 3.359-1.143.707-2.322.825-3.536.354-1.024-.401-1.726-1.12-2.107-2.157l-1.322-3.642c-.523-1.485-1.571-2.204-3.142-2.157Z" fill="#0E9AD0"/></svg>