<svg width="200" height="200" viewBox="0 0 200 200" fill="none" xmlns="http://www.w3.org/2000/svg">
<g clip-path="url(#clip0_234_27)">
<path opacity="0.984" fill-rule="evenodd" clip-rule="evenodd" d="M89.2578 -0.195312C96.6797 -0.195312 104.102 -0.195312 111.523 -0.195312C139.592 3.90384 162.443 16.9247 180.078 38.8672C190.959 53.6117 197.535 70.148 199.805 88.4766C199.805 95.8984 199.805 103.32 199.805 110.742C195.688 142.229 180.519 166.708 154.297 184.18C126.703 142.459 99.0332 100.792 71.2891 59.1797C69.623 57.3059 67.5398 56.5246 65.0391 56.8359C63.9973 56.9012 62.9559 56.966 61.9141 57.0312C60.9375 57.7473 59.9609 58.4637 58.9844 59.1797C58.7238 89.6484 58.7238 120.117 58.9844 150.586C61.6387 153.987 64.959 154.834 68.9453 153.125C70.1824 152.409 71.159 151.432 71.875 150.195C72.0051 127.8 72.1355 105.404 72.2656 83.0078C74.3691 85.5016 76.3223 88.1055 78.125 90.8203C100.257 123.37 122.393 155.922 144.531 188.477C144.798 188.978 144.733 189.434 144.336 189.844C133.714 194.714 122.646 198.034 111.133 199.805C103.841 199.805 96.5496 199.805 89.2578 199.805C55.3371 194.834 29.4906 177.777 11.7188 148.633C8.70719 142.736 6.10301 136.616 3.90625 130.273C2.32685 124.028 0.959664 117.778 -0.195312 111.523C-0.195312 103.841 -0.195312 96.159 -0.195312 88.4766C4.99918 52.6316 23.6189 26.3947 55.6641 9.76562C66.4016 4.84594 77.5992 1.52561 89.2578 -0.195312ZM133.008 54.4922C135.936 54.1816 138.475 54.9629 140.625 56.8359C140.755 57.3566 140.886 57.8777 141.016 58.3984C141.276 84.3098 141.276 110.221 141.016 136.133C136.492 129.559 132.064 122.919 127.734 116.211C127.474 96.9402 127.474 77.6691 127.734 58.3984C128.686 55.9434 130.443 54.641 133.008 54.4922Z" fill="white"/>
</g>
<defs>
<clipPath id="clip0_234_27">
<rect width="200" height="200" fill="white"/>
</clipPath>
</defs>
</svg>
