<svg width="185" height="199" fill="none" xmlns="http://www.w3.org/2000/svg"><path d="m170.378 139.691.036-80.986c.023-1.374-.582-2.405-1.815-3.092l-74.142-40.83a3.974 3.974 0 0 0-1.93-.498c-.678 0-1.348.171-1.948.498L16.437 55.649a3.6 3.6 0 0 0-1.356 1.315 3.542 3.542 0 0 0-.494 1.812v81.448c0 .555.14 1.103.407 1.593.267.49.653.908 1.122 1.214 9.108 6.006 38.637 24.662 38.601 1.244-.023-26.32-.023-52.38 0-78.179 0-2.013.997-3.02 2.989-3.02l8.005-.036c1.92-.023 2.881.924 2.881 2.843-.047 27.007-.059 54.24-.035 81.697.035 20.966-20.742 26.581-36.787 18.763-7.542-3.649-15.155-7.771-22.84-12.367-5.028-3.032-7.554-7.332-7.578-12.899-.047-28.121-.047-55.98 0-83.58 0-2.562.687-5.075 1.99-7.276a14.205 14.205 0 0 1 5.41-5.233L84.317 3.305a17.057 17.057 0 0 1 16.366 0l75.103 41.434a15.875 15.875 0 0 1 6.008 5.812 15.794 15.794 0 0 1 2.21 8.047v81.804a15.843 15.843 0 0 1-2.2 8.049 15.817 15.817 0 0 1-5.983 5.81l-75.387 41.505a15.91 15.91 0 0 1-7.498 1.977 15.963 15.963 0 0 1-7.551-1.799c-8.895-4.62-18.287-9.938-28.177-15.956a.242.242 0 0 1-.085-.175c0-.031.008-.061.023-.086a.149.149 0 0 1 .062-.058 104.617 104.617 0 0 1 13.555-6.184c.211-.076.44-.103.667-.079.228.025.45.101.649.221l18.393 10.626c.52.302 1.112.465 1.716.471a3.535 3.535 0 0 0 1.735-.436l74.214-40.866c1.494-.805 2.241-2.049 2.241-3.731Z" fill="#23B45D"/><path d="M97.374 76.402a7.413 7.413 0 0 0-3.662 4.195 7.472 7.472 0 0 0 .282 5.577c1.4 3.009 3.76 4.714 7.08 5.117 13.733 1.67 47.673 1.244 51.587 18.657 3.273 14.498-5.408 25.194-19.212 28.428-19.71 4.655-53.614 3.767-57.599-21.925-.474-3.009.806-4.513 3.842-4.513h6.653c2.348 0 3.712 1.16 4.092 3.482 2.454 15.28 27.536 13.646 39.348 11.052 6.297-1.386 10.851-7.498 7.684-13.717-.64-1.303-1.636-2.192-2.988-2.665-5.479-1.896-11.029-3.045-16.65-3.447-13.342-.96-37.64-2.381-39.313-20.185-1.174-12.33 7.222-21.214 18.643-23.737 20.421-4.513 50.803-3.376 53.258 23.275a1.867 1.867 0 0 1-.476 1.439 1.811 1.811 0 0 1-.625.444c-.236.1-.492.15-.749.143h-9.036c-1.637-.024-2.752-.806-3.344-2.345-1.424-3.838-3.309-8.316-7.472-9.844-11.645-4.311-22.093-4.122-31.343.569Z" fill="#23B45D"/></svg>