<svg width="170" height="179" fill="none" xmlns="http://www.w3.org/2000/svg"><path d="M152.194 47.44c-9.122-3.63-18.669-4.69-28.639-3.181-6.412.966-12.104 1.248-17.078.848-7.095-.542-13.766.671-20.012 3.64-1.202.566-2.428.637-3.677.212-6.034-2.05-12.717-3.24-20.048-3.57-17.961-.8-28.934 6.975-32.917 23.328-19.553-6.503-39.954-25.943-22.31-44.994 5.869-6.362 12.445-10.874 19.729-13.537C64.296-3.41 99.689-2.444 133.419 13.085c12.269 5.62 25.033 18.732 18.775 34.355Z" fill="#4595D6"/><path d="M149 113c-.094 1.037.778.405.259 1.277-.777 1.296-1.19 1.19-1.237-.318-.377-9.685-.248-19.77.389-30.255.33-5.561-.872-10.51-3.607-14.845-5.303-8.365-11.891-14.586-19.764-18.662-1.674-.872-1.579-1.438.283-1.697 12.28-1.673 22.546.247 30.796 5.761 4.007 2.686 6.6 5.808 7.778 9.367 3.96 12.052-5.94 35.344-11.774 45.594-.165.283-2.557 4.937-2.864 5.055-.754.259-.188-2.078-.259-1.277ZM35.268 83.35c-5.445-31.74 18.138-38.384 42.924-31.068 1.437.424 1.697 1.225.777 2.403C66.771 70.308 68.398 89.5 68.327 107.561c0 4.76 1.768 8.895 5.303 12.406 1.462 1.438 1.486 2.91.071 4.418L62.776 136.12a4.792 4.792 0 0 1-3.179 1.502 4.723 4.723 0 0 1-3.327-1.078C43.648 126.047 37.85 98.301 35.268 83.35Z" fill="#4595D6"/><path d="M136.884 128.485a2166.088 2166.088 0 0 1-4.066 31.316c-2.369 17.354-28.498 21.596-30.301-.53a182.416 182.416 0 0 1-.318-26.12c.283-5.066-2.098-8.188-7.142-9.367-1.532-.353-1.969-1.248-1.308-2.686 5.197-11.169 8.061-18.556 5.763-31.951-2.228-12.972-12.623-14.032-22.664-9.579-2.287 1.013-3.253.283-2.9-2.191 2.44-17.425 13.33-29.124 31.857-27.852 16.029 1.084 28.121 8.942 36.277 23.575.848 1.532.412 2.392-1.309 2.58-29.523 3.358-8.485 33.507.248 45.842.919 1.296.684 2.321-.707 3.075l-1.238.672a4.32 4.32 0 0 0-2.192 3.216ZM30.99 88.758l9.51 31.633C24.096 116.503.23 104.698.796 85.223a196.95 196.95 0 0 0-.319-18.556c-.141-2.12.33-2.262 1.415-.424C8.043 76.893 17.742 84.4 30.99 88.758Z" fill="#4595D6"/><path d="M139.253 86.036c.967-1.225.99-2.439.071-3.64-1.037-1.343-.707-1.991.99-1.944 1.461.023 2.475.66 3.041 1.908.282.66.377 1.344.282 2.05-.895 6.787-.884 13.832.036 21.137.353 2.686.035 5.384-.955 8.094a.953.953 0 0 1-1.307.522.952.952 0 0 1-.39-.346 93.156 93.156 0 0 1-10.996-23.716c-.684-2.31-.248-4.371 1.308-6.186a1.281 1.281 0 0 1 1.007-.437 1.27 1.27 0 0 1 .973.508 8.829 8.829 0 0 0 3.076 2.651c1.132.59 2.086.389 2.864-.6ZM90.32 87.132a11.307 11.307 0 0 0-.425-2.085c-.542-1.838.047-2.321 1.768-1.45 1.225.637 2.027 1.662 2.404 3.075 2.97 11.947 1.06 23.481-5.728 34.603-.66 1.084-1.603 1.508-2.829 1.272-17.112-3.181-10.96-22.903-11.809-34.143-.118-1.343.377-2.415 1.485-3.216a16.747 16.747 0 0 1 6.93-2.934c2.287-.4 3.43.566 3.43 2.899-.024 1.837.778 3.086 2.404 3.746 1.768.73 2.558.141 2.37-1.767ZM97.638 143.366l2.157 28.063c-27.862 4.383-81.251 1.237-96.667-27.851-4.137-7.776-1.98-20.182-2.404-29.301-.118-2.262.377-2.404 1.485-.424 1.343 2.438 2.616 5.443 4.56 7.493 21.145 22.302 61.876 26.013 90.869 22.02ZM153.891 137.604c-2.027 8.766-7.189 15.54-15.487 20.324-.612-6.339.012-12.524 1.874-18.556.354-1.108 1.12-1.673 2.299-1.697l11.314-.071Z" fill="#4595D6"/><path d="M76.487 138.766c-.947-.631-.754-2.074.325-2.434l2.652-.884 3.585-.895a20.765 20.765 0 0 0 6.478-2.865l1.903-1.268c.271-.182.566-.326.876-.429 2.38-.793 4.837.978 4.837 3.487v1.97c0 .557-.262 1.08-.707 1.414l-1.963 1.472a6.682 6.682 0 0 1-1.893.991l-1.625.542a17.234 17.234 0 0 1-5.446.883H82.65a10.53 10.53 0 0 1-5.839-1.767l-.325-.217ZM164.473 129.028a1.344 1.344 0 0 0-1.132-2.069h-.635l-2.308.283c-3.167.388-6.366.43-9.541.126l-4.276-.409-.817-.053c-2.804-.182-4.841 2.619-3.801 5.229a3.825 3.825 0 0 0 3.283 2.4l4.166.294c.611.044 1.225.033 1.834-.031l1.662-.175a23.551 23.551 0 0 0 4.807-1.018l2.273-.735a6.95 6.95 0 0 0 3.407-2.419l1.078-1.423Z" fill="#4595D6"/></svg>