<svg width="198" height="198" fill="none" xmlns="http://www.w3.org/2000/svg"><path d="M97.374 45.116H53.92c-1.367 0-2.04-.684-2.016-2.051.283-15.981-5.622-33.907 16.583-38.575 18.668-3.924 79.2-8.874 77.785 23.902-.565 12.893-.612 25.41-.141 37.55.778 19.057-9.016 29.911-28.392 29.734-14.166-.141-28.439-.2-42.817-.176-30.973.07-30.867 25.634-29.417 48.262.094 1.485-.59 2.345-2.051 2.581-21.85 3.536-35.074-5.079-39.67-25.846-5.446-24.573-4.527-69.088 30.619-68.628 23.665.306 44.667.342 63.006.106a2.085 2.085 0 0 0 2.05-2.192l-.14-2.793c-.072-1.25-.72-1.874-1.945-1.874ZM80.508 24.997a8.45 8.45 0 1 0-16.9 0 8.45 8.45 0 0 0 16.9 0Z" fill="#388ED0"/><path d="M101.015 152.036h43.065c1.368 0 2.039.671 2.016 2.015-.071 7.449-.012 15.05.176 22.805.566 22.876-53.247 19.412-68.416 16.83-11.526-1.98-25.775-9.051-25.846-22.946-.07-12.422-.141-26.294-.212-41.616-.035-15.84 8.45-26.836 24.68-27.331 15.25-.448 29.864-.495 43.842-.141 33.519.884 33.554-23.371 32.211-48.687-.071-1.58.671-2.404 2.227-2.475 10.572-.566 22.311-1.238 29.948 7.142 14.178 15.522 13.86 44.939 9.051 63.643-3.642 14.214-14.072 24.114-29.24 23.972-24.444-.259-45.682-.283-63.714-.071-1.72.024-2.522.884-2.404 2.582l.106 1.873c.036.65.317 1.262.784 1.709a2.496 2.496 0 0 0 1.726.696Zm33.236 20.365a8.416 8.416 0 0 0-14.365-5.95 8.416 8.416 0 0 0 5.95 14.365 8.414 8.414 0 0 0 8.415-8.415Z" fill="#FFE973"/></svg>