<svg width="199" height="177" fill="none" xmlns="http://www.w3.org/2000/svg"><path d="M159.627 56.392c13.077 3.611 25.408 9.381 33.474 19.541 10.306 12.992 1.564 27.081-10.767 34.055-7.652 4.319-15.79 7.941-24.413 10.868a1.767 1.767 0 0 0-1.173 2.124c2.819 10.525 3.625 21.157 2.417 31.895-3.341 30.055-33.333 21.028-48.4 8.213a120.495 120.495 0 0 0-9.772-7.47 2.586 2.586 0 0 0-1.629-.44 2.644 2.644 0 0 0-1.57.653c-7.912 7.033-15.943 12.413-24.093 16.142-18.159 8.284-32.124.213-34.185-18.337-1.137-10.231.249-20.32 2.416-30.196.403-1.888-.331-3.068-2.203-3.54-10.874-2.785-20.267-7.281-28.18-13.488-17.092-13.38-10.91-30.904 5.295-40.32 7.415-4.295 15.352-7.682 23.809-10.16 1.327-.401 1.812-1.274 1.457-2.62-3.27-12.177-3.814-23.836-1.635-34.975C43.46 3.115 57.248-2.549 71.143 2.938c9.5 3.753 17.957 9.487 25.372 17.205.364.38.8.685 1.286.894a3.954 3.954 0 0 0 1.539.321 3.999 3.999 0 0 0 2.861-1.18c8.197-8.33 17.46-14.29 27.789-17.877 12.97-4.496 25.301 1.805 28.251 15.151 2.558 11.434 1.492 23.541-1.031 34.975-.45 2.077.355 3.399 2.417 3.965Zm-67.554-28.85C84.966 19.752 66.274 4.495 55.01 10.867c-11.407 6.443-7.818 29.913-5.152 39.79.426 1.604 1.468 2.277 3.127 2.017l21.535-3.398a5.85 5.85 0 0 0 3.695-2.16l13.93-17.416c.616-.756.593-1.475-.07-2.16Zm51.989-16.426c-10.874-6.797-30.525 9.062-37.064 16.496-.314.357-.49.816-.497 1.295-.006.48.157.948.462 1.325l14.427 17.275c.829 1.015 1.895 1.616 3.198 1.805l22.068 3.257a2.032 2.032 0 0 0 1.435-.32c.421-.282.72-.71.839-1.202 2.523-10.868 6.255-32.993-4.868-39.931ZM89.763 45.808a1.448 1.448 0 0 0 .332 2.136c.23.15.496.23.77.235l17.448.071a1.458 1.458 0 0 0 1.297-.842 1.448 1.448 0 0 0-.195-1.53l-8.671-10.124a1.46 1.46 0 0 0-2.203 0l-8.778 10.054Zm-14 64.534c1.966 3.422 4.37 6.207 7.213 8.354.69.526 1.543.801 2.416.779l27.789-.071a7.868 7.868 0 0 0 6.752-3.929l14.641-25.559a3.81 3.81 0 0 0 0-3.823L119.151 59.33c-.805-1.368-1.99-2.124-3.553-2.265-10.969-.991-21.452-1.015-31.45-.071a6.323 6.323 0 0 0-2.87.977 6.438 6.438 0 0 0-2.104 2.209L64.32 86.022a3.756 3.756 0 0 0-.486 1.77c-.013.618.13 1.226.415 1.77a761.67 761.67 0 0 0 11.513 20.78ZM57.638 75.083a1.63 1.63 0 0 0 1.396 1.058 1.64 1.64 0 0 0 1.554-.81l8.386-14.301a1.624 1.624 0 0 0-.76-2.334 1.641 1.641 0 0 0-.91-.109l-12.829 2.16a1.639 1.639 0 0 0-1.149.78 1.625 1.625 0 0 0-.13 1.379l4.442 12.177Zm73.204-16.496a1.25 1.25 0 0 0-1.224.542 1.237 1.237 0 0 0-.02 1.334l9.346 15.364a1.244 1.244 0 0 0 2.239-.248l4.655-13.31a1.235 1.235 0 0 0-.49-1.436 1.246 1.246 0 0 0-.505-.193l-14.001-2.053ZM9.595 90.517c6.645 12.462 18.763 16.674 32.23 21.559 1.801.661 3.033.095 3.696-1.699l7.143-19.045a9.947 9.947 0 0 0-.035-7.045L45.273 65.49a1.996 1.996 0 0 0-2.239-1.239c-12.544 2.62-28.678 9.877-33.652 22.514a4.6 4.6 0 0 0-.3 1.909c.036.647.211 1.276.513 1.844Zm136.244-.07 7.889 20.249c.497 1.251 1.409 1.711 2.736 1.38 10.139-2.525 19.083-6.985 26.829-13.38 20.22-16.71-15.955-32.002-26.936-34.622a2.174 2.174 0 0 0-2.558 1.345l-7.96 20.214a6.483 6.483 0 0 0 0 4.814Zm-4.655 9.983a1.242 1.242 0 0 0-1.759-.743 1.245 1.245 0 0 0-.516.495l-9.63 15.965a1.234 1.234 0 0 0 .025 1.354 1.25 1.25 0 0 0 1.254.523l13.93-2.549a1.237 1.237 0 0 0 .96-1.593l-4.264-13.452Zm-73.097 17.204a1.242 1.242 0 0 0 1.279-1.876l-9.488-15.611a1.24 1.24 0 0 0-1.21-.57 1.246 1.246 0 0 0-1.029.853l-4.087 13.133a1.236 1.236 0 0 0 .96 1.593l13.575 2.478Zm.71 47.436c8.79-3.941 16.406-9.204 22.85-15.788 1.042-1.086 1.101-2.207.177-3.363l-13.183-16.284c-1.114-1.416-2.559-2.266-4.336-2.549l-21.072-3.575a3.01 3.01 0 0 0-2.118.43 2.924 2.924 0 0 0-1.258 1.729c-3.056 11.682-7.64 51.259 18.94 39.4Zm77.148-41.276c-7 1.203-22.814 1.31-27.22 7.328-3.838 5.286-7.699 10.242-11.585 14.868a2.682 2.682 0 0 0 .178 3.646c7.036 7.033 15.304 12.472 24.804 16.319 9.381 3.823 17.768-2.053 18.798-11.788.995-9.511.391-18.939-1.812-28.285-.403-1.675-1.457-2.371-3.163-2.088Zm-36.353 5.876a1.06 1.06 0 0 0-.817-1.699l-18.834-.177a1.066 1.066 0 0 0-1.077 1.22c.03.205.121.396.26.55l9.559 11.47a1.07 1.07 0 0 0 1.634 0l9.275-11.364Z" fill="#00D8FF"/><path d="M99.394 105.527c9.616 0 17.412-7.766 17.412-17.346s-7.796-17.346-17.412-17.346c-9.617 0-17.413 7.767-17.413 17.346 0 9.58 7.796 17.346 17.413 17.346Z" fill="#00D8FF"/></svg>