<svg width="199" height="198" fill="none" xmlns="http://www.w3.org/2000/svg"><path d="M9.452 79.412c11.727-18.88 22.246-38.61 33.724-57.561 4.027-6.671 10.412-10.053 19.154-10.148 29.352-.33 54.902-.26 76.65.212 8.067.142 14.996 5.976 18.87 12.764a4672.543 4672.543 0 0 0 35.891 62.087c4.714 8.062 4.714 16.182 0 24.362a18112.037 18112.037 0 0 1-37.206 64.031c-4.359 7.449-11.431 11.197-21.215 11.244-25.349.071-49.703.059-73.061-.036-9.31-.035-16.596-5.197-20.931-12.799a11777.65 11777.65 0 0 0-36.85-63.784C-1.67 99.212 3.304 89.312 9.451 79.412Zm97.617-31.468a7.25 7.25 0 0 0-2.144-5.15 7.33 7.33 0 0 0-5.176-2.133h-.995a7.353 7.353 0 0 0-5.177 2.133 7.253 7.253 0 0 0-2.144 5.15V96.03c0 1.932.772 3.784 2.144 5.15a7.34 7.34 0 0 0 5.177 2.134h.995a7.34 7.34 0 0 0 5.176-2.134 7.263 7.263 0 0 0 2.144-5.15V47.944Zm31.627 48.864c-.64 35.145-44.917 51.02-67.98 26.164-12.817-13.813-14.76-29.688-5.828-47.626 2.523-5.091 7.57-8.415 11.3-12.658 2.18-2.428 2.523-5.103 1.031-8.026a5.474 5.474 0 0 0-1.102-1.45c-2.913-2.64-5.958-2.78-9.132-.424-25.195 18.775-28.855 54.097-8.28 77.821 20.362 23.407 56.715 24.68 78.25 2.687 23.773-24.255 20.646-60.319-6.361-80.897-2.464-1.885-4.975-1.944-7.534-.177-1.682 1.18-2.784 2.888-3.305 5.127a5.65 5.65 0 0 0 .189 3.176 5.564 5.564 0 0 0 1.872 2.552c11.514 8.84 17.14 20.083 16.88 33.73Z" fill="#6DB33F"/></svg>