<svg width="198" height="126" fill="none" xmlns="http://www.w3.org/2000/svg"><path d="M146.343 27.216c13.966 16.272 34.827 16.848 48.298-.648 1.461-1.896 1.886-1.68 1.273.648-10.996 42.588-62.9 46.908-89.489 18.252-4.42-4.752-9.051-10.368-14.638-13.572-14.85-8.568-27.967-4.5-39.176 8.1-1.485 1.68-1.92 1.428-1.308-.756 5.445-19.68 17.502-31.236 36.17-34.668 24.609-4.5 43.278 4.428 58.87 22.644ZM55.192 102.996C40.625 85.572 19.977 80.172 3.748 99.684c-1.933 2.328-2.452 2.04-1.556-.864 7.19-23.448 23.124-35.244 47.803-35.388 20.896-.108 35.392 9.9 48.51 24.876 14.001 15.984 34.049 14.364 47.591-2.232 1.249-1.56 1.614-1.368 1.096.576-5.905 21.42-20.72 34.992-43.065 36.576-20.177 1.44-36.489-5.304-48.935-20.232Z" fill="#38BDF8"/></svg>