<svg width="197" height="197" fill="none" xmlns="http://www.w3.org/2000/svg"><path d="M183.927.796H13.487C6.428.796.706 6.52.706 13.58v170.439c0 7.06 5.723 12.783 12.783 12.783h170.439c7.059 0 12.782-5.723 12.782-12.783V13.579c0-7.06-5.723-12.783-12.782-12.783Z" fill="#1A7BE6"/><path d="M64.087 116.821v-10.352h54.394v10.352H97.409v57.823H85.16v-57.823H64.087Zm100.055 8.389c-.31-2.907-1.62-5.171-3.927-6.791-2.286-1.62-5.26-2.43-8.922-2.43-2.575 0-4.783.389-6.624 1.165-1.843.777-3.251 1.831-4.228 3.163-.977 1.331-1.476 2.851-1.498 4.561 0 1.419.322 2.652.965 3.694.666 1.043 1.565 1.931 2.697 2.663a18.925 18.925 0 0 0 3.761 1.798c1.377.488 2.763.899 4.162 1.232l6.391 1.597c2.575.6 5.048 1.41 7.424 2.431 2.396 1.021 4.538 2.308 6.424 3.861a17.14 17.14 0 0 1 4.527 5.626c1.11 2.197 1.664 4.772 1.664 7.723 0 3.995-1.02 7.512-3.061 10.553-2.042 3.018-4.994 5.381-8.856 7.09-3.839 1.686-8.488 2.53-13.948 2.53-5.304 0-9.909-.821-13.814-2.464-3.884-1.642-6.925-4.038-9.121-7.19-2.175-3.151-3.351-6.99-3.529-11.518h12.15c.177 2.375.91 4.35 2.197 5.926 1.288 1.575 2.963 2.751 5.027 3.528 2.086.777 4.416 1.165 6.991 1.165 2.685 0 5.037-.399 7.057-1.198 2.042-.821 3.64-1.953 4.793-3.396 1.154-1.464 1.742-3.172 1.764-5.126-.022-1.775-.543-3.24-1.564-4.394-1.021-1.176-2.452-2.152-4.294-2.929-1.82-.799-3.95-1.51-6.392-2.131l-7.756-1.998c-5.615-1.441-10.053-3.627-13.315-6.557-3.24-2.951-4.86-6.869-4.86-11.751 0-4.017 1.087-7.534 3.262-10.553 2.197-3.017 5.181-5.359 8.955-7.024 3.772-1.686 8.044-2.53 12.816-2.53 4.838 0 9.077.844 12.716 2.53 3.661 1.665 6.536 3.984 8.622 6.958 2.086 2.952 3.163 6.347 3.229 10.186h-11.885Z" fill="#1C1C1C"/></svg>